<?xml version="1.0" encoding="UTF-8" standalone="no"?>
<svg
   xmlns:dc="http://purl.org/dc/elements/1.1/"
   xmlns:cc="http://creativecommons.org/ns#"
   xmlns:rdf="http://www.w3.org/1999/02/22-rdf-syntax-ns#"
   xmlns:svg="http://www.w3.org/2000/svg"
   xmlns="http://www.w3.org/2000/svg"
   xmlns:sodipodi="http://sodipodi.sourceforge.net/DTD/sodipodi-0.dtd"
   xmlns:inkscape="http://www.inkscape.org/namespaces/inkscape"
   width="1.41667in"
   height="1.64583in"
   viewBox="0 0 136 158"
   version="1.1"
   id="svg20"
   sodipodi:docname="logo_ink.svg"
   inkscape:version="0.92.3 (2405546, 2018-03-11)">
  <metadata
     id="metadata26">
    <rdf:RDF>
      <cc:Work
         rdf:about="">
        <dc:format>image/svg+xml</dc:format>
        <dc:type
           rdf:resource="http://purl.org/dc/dcmitype/StillImage" />
      </cc:Work>
    </rdf:RDF>
  </metadata>
  <defs
     id="defs24" />
  <sodipodi:namedview
     pagecolor="#ffffff"
     bordercolor="#666666"
     borderopacity="1"
     objecttolerance="10"
     gridtolerance="10"
     guidetolerance="10"
     inkscape:pageopacity="0"
     inkscape:pageshadow="2"
     inkscape:window-width="1920"
     inkscape:window-height="1017"
     id="namedview22"
     showgrid="false"
     inkscape:zoom="3.8040631"
     inkscape:cx="158.90478"
     inkscape:cy="56.218183"
     inkscape:window-x="-8"
     inkscape:window-y="-8"
     inkscape:window-maximized="1"
     inkscape:current-layer="svg20" />
  <path
     id="Selection_001"
     d="M 59,56.13 62.59,36.11 65,33
		C 2.24,9.33
		  -3.15,17.16
		  3.75,25.7
		  3.11,3.84
		  7.84,5.05
		  11.53,8.16
		  2.48,2.09
		  6.54,8.83
		  9.36,8.96
		  1.68,0.07
		  7.43,-2.51
		  9.36,-3.21
		  l 20,-6.59
		C 5.28,-1.69
		  5.02,-3.13
		  11,-2.02
		  -2.49,4.91
		  -7.04,4.51
		  -12,6.02
		  -9.06,2.78
		  -20.65,4.78
		  -26.5,12.76
		  -3.73,4.57
		  2.61,5.92
		  1.33,11.22
		  l -4.07,12
		C -0.55,3.41
		  1.23,5.37
		  0.54,7.59
		  -0.72,2.33
		  -3.99,2.81
		  -4.52,6.46
		  -0.47,3.25
		  1.92,5.66
		  2.03,9.95
		  0.26,10.78
		  -8.66,17.51
		  -17.81,21 0,0
		  0.82,-4.27
		  -6.45,-2.55
		  -2.13,-1.1
		  -3.47,-2.42
		  -4.37,-3.63
		  -5.82,-1.27
		  -1.45,-8.27
		  -5.18,-9.82
		  -1.91,-3.64
		  -5.64,3.73
		  -9.4,-0.6
		  -4.05,-2.13
		  0.95,-6.76
		  -0.87,-8.95
		L -9.69,-6.92
		C 0,0
		  -7.47,-8.44
		  -8.64,-9.81
		  -5.44,-4.59
		  1.08,-6.42
		  -2.88,-10.37
		C 18.22,97.83
		  18.78,97.43
		  13,99.52
		  13,99.52
		  2.7939624,101.38899
		  7.4600354,96
		  12.520035,90.01
		  13.74,92.74
		  17.85,89.44
		  20.95,86.96
		  23.43,77.49
		  21.36,74.02
		  19.07,70.18
		  15.89,70.21
		  12,64
		C 5.85,-0.47
		  5.36,1.66
		  10,3.12
		  3.08,0.96
		  10.22,-1.52
		  12.4,-3.84
		C 37.25,60.24
		  33.85,54.31
		  32.58,51
		  28.64,40.75
		  29.67,44.85
		  25.21,37
		L 22.04,31.01
		C 17.65,24.24
		  18.91,28.74
		  15.46,20
		  14.41,17.31
		  7.71,7.42
		  13.08,5.73
		  15.43,5
		  16.75,7.38
		  17.69,9.05 l
		  3.29,5.94
		C 2.5,3.6
		  4.58,4.75
		  6.31,9.05
		  3.39,8.42
		  7.43,28.84
		  16.75,32.09
		  2.1,0.88
		  11.62,-0.13
		  14.96,0 z"
     inkscape:connector-curvature="0"
     style="fill:none;stroke:#000000;stroke-width:1"
     sodipodi:nodetypes="cccccccccccccccccccccccccccccccccccccccccc" />
  <path
     id="Selection_002"
     d="M 8.802842,62
		C -2.42,1.39
		  -2.0779238,1.022521
		  -4.0657194,-1 2.483798,-1.056729
		  2.7513326,-1.694493 4.0657194,1 Z"
     inkscape:connector-curvature="0"
     style="fill:none;stroke:#000000;stroke-width:1"
     sodipodi:nodetypes="ccc" />
  <path
     id="Selection_003"
     fill="none"
     stroke="black"
     stroke-width="1"
     d="M 53.50,61.00
		C 53.50,61.00 39.77,63.09 32.50,70.62
	 	  25.73,77.64 25.38,90.12 25.38,90.12
	 	  25.38,90.12 25.44,102.43 31.38,111.12
	 	  34.89,116.27 41.47,120.42 45.75,124.25
	 	  47.41,125.73 49.38,126.64 50.62,127.88
	 	  53.96,131.19 55.25,133.88 55.25,133.88
	 	  55.25,133.88 57.25,133.62 57.25,133.62
	 	  57.25,133.62 55.70,130.04 53.62,127.25
	 	  51.33,124.17 48.50,121.88 48.50,121.88
	 	  48.50,121.88 42.06,118.51 37.12,112.50
	 	  32.57,106.96 29.50,98.75 29.50,98.75
	 	  29.50,98.75 28.01,88.84 30.12,81.25
	 	  31.66,75.73 36.25,71.38 36.25,71.38
	 	  36.25,71.38 40.34,68.54 44.38,66.38
	 	  48.82,63.99 54.00,62.75 54.00,62.75
	 	  54.00,62.75 53.50,61.00 53.50,61.00 Z" />
  <path
     id="Selection_004"
     fill="none"
     stroke="black"
     stroke-width="1"
     d="M 65.12,137.62
		C 62.05,137.62 58.75,137.00 58.75,137.00
	 	  58.75,137.00 58.88,139.12 58.88,139.12
	 	  58.88,139.12 62.10,139.88 65.25,140.00
	 	  68.77,140.13 72.25,139.62 72.25,139.62
	 	  72.25,139.62 74.93,138.68 77.00,137.38
	 	  78.78,136.26 80.00,134.75 80.00,134.75
	 	  80.00,134.75 77.88,133.38 77.88,133.38
	 	  77.88,133.38 76.65,134.63 74.88,135.62
	 	  73.44,136.43 71.38,137.00 71.38,137.00
	 	  71.38,137.00 68.36,137.62 65.12,137.62 Z" />
  <path
     id="Selection_005"
     fill="none"
     stroke="black"
     stroke-width="1"
     d="M 67.75,143.75
		C 65.90,143.75 64.12,143.00 64.12,143.00
	 	  64.12,143.00 64.12,144.88 64.12,144.88
	 	  64.12,144.88 66.13,145.60 67.75,145.62
	 	  69.67,145.66 71.25,145.00 71.25,145.00
	 	  71.25,145.00 73.34,144.23 75.00,143.12
	 	  76.29,142.26 77.25,141.00 77.25,141.00
	 	  77.25,141.00 75.75,139.75 75.75,139.75
	 	  75.75,139.75 74.98,140.66 73.75,141.50
	 	  72.61,142.28 71.00,143.00 71.00,143.00
	 	  71.00,143.00 69.31,143.75 67.75,143.75 Z" />
  <path
     id="Selection_006"
     fill="none"
     stroke="black"
     stroke-width="1"
     d="M 38.88,89.00
		C 38.88,89.00 41.50,109.25 41.50,109.25
		  41.50,109.25 49.25,106.75 49.25,106.75
	 	  49.25,106.75 48.50,104.38 48.50,104.38
	 	  48.50,104.38 44.12,105.75 44.12,105.75
	 	  44.12,105.75 41.62,88.12 41.62,88.12
	 	  41.62,88.12 38.88,89.00 38.88,89.00 Z" />
  <path
     id="Selection_007"
     fill="none"
     stroke="black"
     stroke-width="1"
     d="M 48.00,86.88
		C 48.00,86.88 48.12,90.12 48.12,90.12
		  48.12,90.12 49.62,89.88 49.62,89.88
		  49.62,89.88 50.12,87.00 50.12,87.00
		  50.12,87.00 48.00,86.88 48.00,86.88 Z" />
  <path
     id="Selection_008"
     fill="none"
     stroke="black"
     stroke-width="1"
     d="M 51.88,93.62
		C 51.88,93.62 57.88,90.38 57.88,90.38
		  57.88,90.38 58.88,92.12 58.88,92.12
		  58.88,92.12 56.12,93.62 56.12,93.62
		  56.12,93.62 57.12,104.75 57.12,104.75
		  57.12,104.75 58.25,104.00 58.25,104.00
		  58.25,104.00 58.50,106.75 58.50,106.75
		  58.50,106.75 53.88,109.12 53.88,109.12
		  53.88,109.12 53.25,107.25 53.25,107.25
		  53.25,107.25 54.12,106.62 54.12,106.62
		  54.12,106.62 53.50,95.50 53.50,95.50
		  53.50,95.50 52.25,96.25 52.25,96.25
		  52.25,96.25 51.88,93.62 51.88,93.62 Z" />
  <path
     id="Selection_009"
     fill="none"
     stroke="black"
     stroke-width="1"
     d="M 58.75,95.88
		C 58.75,95.88 60.12,107.75 60.12,107.75
		  60.12,107.75 62.25,106.75 62.25,106.75
		  62.25,106.75 61.88,103.12 61.88,103.12
		  61.88,103.12 64.62,105.38 64.62,105.38
		  64.62,105.38 67.12,104.38 67.12,104.38
		  67.12,104.38 65.75,91.38 65.75,91.38
		  65.75,91.38 63.38,92.88 63.38,92.88
		  63.38,92.88 64.62,102.50 64.62,102.50
		  64.62,102.50 60.75,94.88 60.75,94.88
		  60.75,94.88 58.75,95.88 58.75,95.88 Z" />
  <path id="Selection_010"
        fill="none" stroke="black" stroke-width="1"
        d="M 70.03,104.06
           C 70.03,104.06 72.53,102.88 72.53,102.88
             72.53,102.88 71.94,98.84 71.94,98.84
             71.94,98.84 76.55,104.00 76.55,104.00
             76.55,104.00 79.09,102.55 79.09,102.55
             79.09,102.55 72.91,96.18 72.91,96.18
             72.91,96.18 77.27,87.82 77.27,87.82
             77.27,87.82 74.18,88.91 74.18,88.91
             74.18,88.91 71.34,94.78 71.34,94.78
             71.34,94.78 70.73,90.18 70.73,90.18
             70.73,90.18 68.55,91.09 68.55,91.09
             68.55,91.09 70.03,104.06 70.03,104.06 Z" />
</svg>
